<svg width="19" height="11" viewBox="0 0 19 11" fill="none" xmlns="http://www.w3.org/2000/svg">
<path fill-rule="evenodd" clip-rule="evenodd" d="M5.63019 10.7014C5.63019 10.89 5.52396 11 5.34185 11H3.0655C2.88339 11 2.77716 10.89 2.77716 10.7014V2.67143C2.77716 2.59286 2.73163 2.54571 2.65575 2.54571H0.288339C0.10623 2.54571 0 2.43571 0 2.24714V0.298571C0 0.11 0.10623 0 0.288339 0H8.19489C8.377 0 8.48323 0.11 8.48323 0.298571V2.24714C8.48323 2.43571 8.377 2.54571 8.19489 2.54571H5.7516C5.67572 2.54571 5.63019 2.59286 5.63019 2.67143V10.7014ZM12.2013 10.7014C12.2013 10.89 12.095 11 11.9129 11H9.63658C9.45447 11 9.34824 10.89 9.34824 10.7014V0.298571C9.34824 0.11 9.45447 0 9.63658 0H11.8978C12.0495 0 12.1709 0.0628571 12.2468 0.204286L14.0831 3.3C14.1286 3.39429 14.2196 3.39429 14.2652 3.3L16.1014 0.204286C16.1773 0.0628571 16.2987 0 16.4505 0H18.7117C18.8938 0 19 0.11 19 0.298571V10.7014C19 10.89 18.8938 11 18.7117 11H16.4353C16.2532 11 16.147 10.89 16.147 10.7014V5.15429C16.147 5.02857 16.0559 5.01286 15.9952 5.10714L15.0543 6.72571C14.9784 6.86714 14.857 6.93 14.7053 6.93H13.643C13.4912 6.93 13.3698 6.86714 13.2939 6.72571L12.353 5.10714C12.2923 5.01286 12.2013 5.02857 12.2013 5.15429V10.7014Z" fill="white"/>
</svg>
